# xmcd
#
# Track frame offsets:
#	150
#	5712
#	12620
#	22772
#	26310
#	35195
#	40492
#	48125
#	57792
#	66852
#	69972
#	81132
#	87017
#	97372
#	108750
#	111955
#	123270
#	129650
#	142107
#	153617
#	161285
#	165970
#	173470
#	178540
#	193215
#	205377
#	209785
#	217970
#	220695
#
# Disc length: 3043 seconds
#
# Revision: 1
# Processed by: cddbd v1.4PL0 Copyright (c) Steve Scherf et al.
# Submitted via: audiograbber 1.81.03
#
DISCID=950be11d
DTITLE=Blue Sky Boys - On Radio - Volume 1
DYEAR=1946
DGENRE=Country
TTITLE0=Opening and Theme
TTITLE1=The Blood of Jesus
TTITLE2=Just A Strand From A Yellow Curl
TTITLE3=Comedy 1
TTITLE4=Will You Meet Me Over Yonder
TTITLE5=Katy Hill
TTITLE6=Will My Mother Know Me There
TTITLE7=Take Me Back To Renfro Valley
TTITLE8=Advertisement 1
TTITLE9=Comedy 2
TTITLE10=The Holiness Mother
TTITLE11=8th Of January
TTITLE12=When I Reach That City On The Hill
TTITLE13=Trail To Mexico
TTITLE14=Comedy 3
TTITLE15=Someone's Last Day
TTITLE16=Ida Red
TTITLE17=That Beautiful Home
TTITLE18=The Longest Train I Ever Saw
TTITLE19=Advertisement 2
TTITLE20=Comedy 4
TTITLE21=What Would You Give In Exchange For Your Soul
TTITLE22=Old Joe Clark
TTITLE23=Row Us Over The Tide
TTITLE24=Why Should It End This Way
TTITLE25=Comedy 5
TTITLE26=Gathering Buds
TTITLE27=Lost Train Blues
TTITLE28=Closing and Theme
EXTD=1993 Copper Creek CCCD-0120\nRecorded 1946-47 for WGST Atlanta
EXTT0=
EXTT1=
EXTT2=
EXTT3=
EXTT4=
EXTT5=
EXTT6=
EXTT7=
EXTT8=
EXTT9=
EXTT10=
EXTT11=
EXTT12=
EXTT13=
EXTT14=
EXTT15=
EXTT16=
EXTT17=
EXTT18=
EXTT19=
EXTT20=
EXTT21=
EXTT22=
EXTT23=
EXTT24=
EXTT25=
EXTT26=
EXTT27=
EXTT28=
PLAYORDER=
